<svg width="49" height="49" viewBox="0 0 49 49" fill="none" xmlns="http://www.w3.org/2000/svg">
<path d="M24.2295 48.9764C10.7041 48.9276 -0.116245 37.8436 0.000942955 24.2597C0.108365 10.9198 10.8799 -0.164175 24.581 0.00184104C37.9697 0.158091 48.6923 11.2128 48.5361 24.7772C48.3896 38.0585 37.7158 48.9667 24.2295 48.9764ZM20.7724 36.2518C20.6162 36.2225 20.5478 36.2128 20.4697 36.203C18.6045 35.9393 16.8564 35.3827 15.2939 34.2694C13.624 33.078 12.5986 31.4764 12.1787 29.5136C11.749 27.5116 11.915 25.4901 12.2275 23.4882C12.4423 22.1112 12.9111 20.8124 13.9853 19.8261C14.1416 19.6796 14.1318 19.5624 14.0537 19.3671C13.4677 17.746 13.5361 16.1151 14.0244 14.4843C14.122 14.162 14.2783 14.0253 14.6201 14.1522C15.0302 14.2987 15.4502 14.4257 15.831 14.6503C16.8759 15.2655 17.6767 16.1151 18.3798 17.0819C18.5556 17.3163 18.6728 17.3554 18.917 17.1893C19.5224 16.7694 20.2353 16.6425 20.9287 16.5155C22.6084 16.203 24.2978 16.2616 25.9873 16.3397C26.9736 16.3886 27.9502 16.5643 28.8877 16.9159C29.1806 17.0233 29.4443 17.4042 29.7177 17.2577C29.9912 17.121 30.1572 16.7499 30.372 16.496C31.2314 15.4608 32.2177 14.6015 33.5459 14.1815C33.9756 14.0448 34.1709 14.1132 34.3173 14.5722C34.8056 16.164 34.874 17.7362 34.2588 19.2987C34.1611 19.5429 34.1806 19.7186 34.3857 19.9042C35.1963 20.6561 35.665 21.6229 35.9091 22.6874C36.3291 24.5038 36.4365 26.3593 36.3193 28.2147C36.2021 29.9921 35.6259 31.6132 34.4345 32.9804C32.833 34.8163 30.7431 35.7245 28.3896 36.1249C28.1162 36.1737 27.833 36.2225 27.54 36.2714C28.2334 37.3554 28.5654 38.4784 28.5752 39.6893C28.5849 41.0858 28.5752 42.4921 28.5752 43.8886C28.5752 44.7968 28.5752 45.705 28.5752 46.6229C30.0595 46.4765 32.833 45.4901 34.7666 44.4354C43.7802 39.5233 48.331 29.3768 46.0361 19.328C43.3213 7.37489 31.4951 -0.17394 19.542 2.41395C8.2529 4.86512 0.440396 15.744 2.13961 27.6972C2.93063 33.2538 5.47946 37.9022 9.69821 41.6034C12.4814 44.0448 15.7041 45.6757 19.3173 46.5155C19.6006 46.5839 19.7275 46.5643 19.7177 46.2225C19.6982 45.2655 19.6982 44.2987 19.7177 43.3417C19.7177 43.0194 19.6591 42.9218 19.3076 42.9901C18.6728 43.1171 18.0185 43.1854 17.3642 43.1464C15.2939 43.0389 13.6142 42.2186 12.4326 40.4608C12.0322 39.8651 11.8076 39.1718 11.4267 38.5761C10.7529 37.5311 10.1572 36.4276 9.03415 35.7538C8.88766 35.6659 8.71188 35.5292 8.79977 35.3241C8.8779 35.1288 9.09274 35.1581 9.26852 35.1386C10.5185 35.0409 11.5439 35.5097 12.3935 36.4081C12.8427 36.8866 13.1259 37.4823 13.5166 37.9999C14.8154 39.7284 17.2959 40.4706 19.3271 39.7382C19.6201 39.6307 19.708 39.4843 19.747 39.1815C19.8642 38.1561 20.0595 37.1503 20.7724 36.2518Z" fill="#0E243F"/>
</svg>
